<?xml version="1.0" encoding="iso-8859-1"?>
<!-- Generator: Adobe Illustrator 19.0.0, SVG Export Plug-In . SVG Version: 6.00 Build 0)  -->
<svg version="1.1" id="Capa_1" xmlns="http://www.w3.org/2000/svg" xmlns:xlink="http://www.w3.org/1999/xlink" x="0px" y="0px"
	 viewBox="0 0 512 512" style="enable-background:new 0 0 512 512;" xml:space="preserve">
<g>
	<g>
		<g>
			<path d="M130.667,78.947c3.705,6.416,10.427,10.002,17.338,10.002c3.394,0,6.833-0.865,9.982-2.684
				c9.565-5.523,12.842-17.755,7.319-27.321l-10.001-17.32c-5.524-9.567-17.756-12.843-27.321-7.319
				c-9.565,5.523-12.842,17.755-7.319,27.321L130.667,78.947z"/>
			<path d="M358.333,88.836c3.259,1.995,6.863,2.945,10.423,2.945c6.731,0,13.305-3.399,17.077-9.561l10.442-17.058
				c5.767-9.421,2.805-21.733-6.615-27.5c-9.421-5.767-21.733-2.806-27.5,6.615l-10.442,17.058
				C345.951,70.757,348.913,83.069,358.333,88.836z"/>
			<path d="M467.836,361.931l-34.138-20.848c-9.427-5.756-21.735-2.781-27.493,6.645c-5.757,9.427-2.782,21.736,6.645,27.493
				l34.138,20.848c3.254,1.987,6.852,2.934,10.405,2.934c6.739,0,13.318-3.407,17.088-9.579
				C480.238,379.997,477.263,367.688,467.836,361.931z"/>
			<path d="M452,256c0,11.046,8.954,20,20,20h20c11.046,0,20-8.954,20-20s-8.954-20-20-20h-20C460.954,236,452,244.954,452,256z"/>
			<path d="M425.278,177.173c3.424,0,6.895-0.881,10.066-2.732l34.542-20.169c9.539-5.57,12.756-17.817,7.187-27.356
				c-5.569-9.538-17.815-12.756-27.356-7.187l-34.542,20.169c-9.539,5.57-12.756,17.817-7.187,27.356
				C411.706,173.622,418.399,177.173,425.278,177.173z"/>
			<path d="M256,80c11.046,0,20-8.954,20-20V20c0-11.046-8.954-20-20-20c-11.046,0-20,8.954-20,20v40C236,71.046,244.954,80,256,80z
				"/>
			<path d="M492,472H269.5c-10.752,0-19.5-8.748-19.5-19.5s8.748-19.5,19.5-19.5H322c32.533,0,59-26.467,59-59
				c0-32.533-26.467-59-59-59H156.114C145.557,297.181,140,276.946,140,256c0-63.962,52.038-116,116-116s116,52.038,116,116
				c0,11.046,8.954,20,20,20c11.046,0,20-8.954,20-20c0-86.019-69.981-156-156-156s-156,69.981-156,156
				c0,20.458,3.961,40.414,11.563,59H20c-11.046,0-20,8.954-20,20c0,11.046,8.954,20,20,20h302c10.477,0,19,8.523,19,19
				s-8.523,19-19,19h-52.5c-32.809,0-59.5,26.691-59.5,59.5c0,32.809,26.691,59.5,59.5,59.5H492c11.046,0,20-8.954,20-20
				C512,480.954,503.046,472,492,472z"/>
			<path d="M44.164,150.069l34.138,20.848c3.254,1.987,6.852,2.934,10.405,2.934c6.739,0,13.318-3.407,17.088-9.579
				c5.757-9.427,2.782-21.736-6.645-27.493l-34.138-20.848c-9.427-5.756-21.735-2.782-27.493,6.645
				C31.762,132.003,34.737,144.312,44.164,150.069z"/>
			<path d="M20,433h121c11.046,0,20-8.954,20-20c0-11.046-8.954-20-20-20H20c-11.046,0-20,8.954-20,20C0,424.046,8.954,433,20,433z"
				/>
			<path d="M161,472H20c-11.046,0-20,8.954-20,20c0,11.046,8.954,20,20,20h141c11.046,0,20-8.954,20-20
				C181,480.954,172.046,472,161,472z"/>
			<path d="M20,276h20c11.046,0,20-8.954,20-20c0-11.046-8.954-20-20-20H20c-11.046,0-20,8.954-20,20S8.954,276,20,276z"/>
		</g>
	</g>
</g>
<g>
</g>
<g>
</g>
<g>
</g>
<g>
</g>
<g>
</g>
<g>
</g>
<g>
</g>
<g>
</g>
<g>
</g>
<g>
</g>
<g>
</g>
<g>
</g>
<g>
</g>
<g>
</g>
<g>
</g>
</svg>
